<?xml version="1.0" encoding="UTF-8"?>
<svg id="_圖層_1" data-name="圖層 1" xmlns="http://www.w3.org/2000/svg" xmlns:xlink="http://www.w3.org/1999/xlink" viewBox="0 0 1920 1091">
  <defs>
    <style>
      .cls-1 {
        fill: #dfdce9;
      }

      .cls-1, .cls-2, .cls-3, .cls-4 {
        stroke-width: 0px;
      }

      .cls-2 {
        fill: none;
      }

      .cls-3 {
        fill: #f9f9f9;
      }

      .cls-4 {
        fill: url(#_新增圖樣);
      }
    </style>
    <pattern id="_新增圖樣" data-name="新增圖樣" x="0" y="0" width="160" height="160" patternUnits="userSpaceOnUse" viewBox="0 0 160 160">
      <g>
        <rect class="cls-2" width="160" height="160"/>
        <rect class="cls-3" x="80" y="120" width="160" height="80"/>
        <rect class="cls-3" x="-80" y="120" width="160" height="80"/>
        <g>
          <rect class="cls-3" x="0" y="40" width="160" height="80"/>
          <polygon class="cls-1" points="63.97 105.94 67.85 93.48 75.38 104.13 88.43 103.96 80.62 114.42 84.81 126.77 72.46 122.58 62 130.39 62.17 117.34 51.51 109.81 63.97 105.94"/>
        </g>
        <g>
          <rect class="cls-3" x="80" y="-40" width="160" height="80"/>
          <polygon class="cls-1" points="143.97 25.94 147.85 13.48 155.38 24.13 168.43 23.96 160.62 34.42 164.81 46.77 152.46 42.58 142 50.39 142.17 37.34 131.51 29.81 143.97 25.94"/>
        </g>
        <g>
          <rect class="cls-3" x="-80" y="-40" width="160" height="80"/>
          <polygon class="cls-1" points="-16.03 25.94 -12.15 13.48 -4.62 24.13 8.43 23.96 .62 34.42 4.81 46.77 -7.54 42.58 -18 50.39 -17.83 37.34 -28.49 29.81 -16.03 25.94"/>
        </g>
      </g>
    </pattern>
  </defs>
  <rect class="cls-4" width="1920" height="1091"/>
</svg>