<?xml version="1.0" encoding="UTF-8"?>
<svg id="_圖層_1" data-name="圖層 1" xmlns="http://www.w3.org/2000/svg" viewBox="0 0 877.97 719.53">
  <defs>
    <style>
      .cls-1, .cls-2, .cls-3, .cls-4 {
        stroke-width: 0px;
      }

      .cls-2 {
        fill: #dfdce9;
      }

      .cls-3 {
        fill: #fff;
      }

      .cls-4 {
        fill: #aeaede;
      }
    </style>
  </defs>
  <g>
    <polygon class="cls-2" points="800.81 143.54 774.02 148.14 786.66 124.08 774.02 100.02 800.8 104.62 819.77 85.15 823.69 112.05 848.06 124.08 823.69 136.11 819.78 163.01 800.81 143.54"/>
    <path class="cls-1" d="m819.43,86.23l3.73,25.63.08.52.47.23,23.23,11.46-23.23,11.47-.47.23-.08.52-3.72,25.64-18.08-18.55-.37-.38-.52.09-25.53,4.38,12.05-22.93.24-.47-.24-.47-12.06-22.93,25.53,4.38.52.09.37-.38,18.08-18.55m.7-2.15l-19.49,20-27.53-4.72,13,24.72-13,24.72,27.53-4.72,19.5,20,4.01-27.64,25.05-12.36-25.05-12.36-4.02-27.64h0Z"/>
  </g>
  <g>
    <polygon class="cls-2" points="340.73 472.33 314.68 480.1 324.36 454.7 308.93 432.33 336.08 433.69 352.59 412.1 359.68 438.33 385.32 447.37 362.56 462.22 361.89 489.39 340.73 472.33"/>
    <path class="cls-1" d="m352.37,413.21l6.76,25.01.14.51.5.17,24.43,8.61-21.69,14.16-.44.29v.53s-.65,25.9-.65,25.9l-20.17-16.26-.41-.33-.5.15-24.83,7.4,9.23-24.2.19-.49-.3-.43-14.71-21.32,25.87,1.3.53.03.32-.42,15.74-20.58m.44-2.22l-16.97,22.19-27.9-1.4,15.86,22.99-9.95,26.1,26.77-7.98,21.75,17.53.69-27.92,23.39-15.27-26.34-9.28-7.29-26.96h0Z"/>
  </g>
  <g>
    <polygon class="cls-2" points="671.04 361.66 663.42 354.58 673.67 352.83 678.05 343.4 682.88 352.61 693.2 353.86 685.93 361.3 687.94 371.5 678.62 366.89 669.53 371.95 671.04 361.66"/>
    <path class="cls-1" d="m678.08,344.53l4.24,8.08.24.47.52.06,9.06,1.09-6.38,6.53-.37.38.1.52,1.76,8.95-8.18-4.05-.47-.23-.46.26-7.97,4.44,1.32-9.03.08-.52-.39-.36-6.69-6.21,9-1.53.52-.09.22-.48,3.84-8.28m-.05-2.26l-4.69,10.12-10.99,1.87,8.17,7.59-1.62,11.03,9.74-5.43,9.99,4.95-2.15-10.94,7.79-7.97-11.07-1.34-5.18-9.88h0Z"/>
  </g>
  <g>
    <polygon class="cls-2" points="145.04 613.66 137.42 606.58 147.67 604.83 152.05 595.4 156.88 604.61 167.2 605.86 159.93 613.3 161.94 623.5 152.62 618.89 143.53 623.95 145.04 613.66"/>
    <path class="cls-1" d="m152.08,596.53l4.24,8.08.24.47.52.06,9.06,1.09-6.38,6.53-.37.38.1.52,1.76,8.95-8.18-4.05-.47-.23-.46.26-7.97,4.44,1.32-9.03.08-.52-.39-.36-6.69-6.21,9-1.53.52-.09.22-.48,3.84-8.28m-.05-2.26l-4.69,10.12-10.99,1.87,8.17,7.59-1.62,11.03,9.74-5.43,9.99,4.95-2.15-10.94,7.79-7.97-11.07-1.34-5.18-9.88h0Z"/>
  </g>
  <g>
    <polygon class="cls-4" points="710.13 167.69 695.63 161.82 709.11 153.88 710.21 138.27 721.93 148.63 737.12 144.85 730.88 159.21 739.17 172.49 723.59 170.99 713.52 182.97 710.13 167.69"/>
    <path class="cls-1" d="m710.64,139.31l10.77,9.52.39.35.51-.13,13.95-3.47-5.73,13.18-.21.48.28.45,7.61,12.19-14.31-1.38-.52-.05-.34.4-9.25,11.01-3.11-14.03-.11-.51-.49-.2-13.33-5.39,12.38-7.3.45-.27.04-.52,1.01-14.34m-.86-2.09l-1.15,16.36-14.13,8.33,15.2,6.15,3.55,16.01,10.55-12.56,16.33,1.57-8.68-13.91,6.54-15.04-15.92,3.96-12.29-10.87h0Z"/>
  </g>
  <g>
    <polygon class="cls-4" points="851.37 46.2 842.28 38.21 854.16 35.85 858.95 24.73 864.86 35.3 876.92 36.43 868.69 45.32 871.35 57.13 860.35 52.05 849.94 58.23 851.37 46.2"/>
    <path class="cls-1" d="m859.01,25.86l5.29,9.46.26.46.52.05,10.79,1.01-7.36,7.95-.36.39.12.51,2.38,10.57-9.84-4.54-.48-.22-.45.27-9.32,5.53,1.28-10.76.06-.52-.39-.35-8.14-7.16,10.63-2.1.52-.1.21-.48,4.29-9.95m-.12-2.26l-5.09,11.81-12.62,2.5,9.66,8.49-1.52,12.77,11.06-6.56,11.68,5.39-2.82-12.55,8.74-9.44-12.81-1.2-6.27-11.23h0Z"/>
  </g>
  <g>
    <polygon class="cls-4" points="271.37 549.2 262.28 541.21 274.16 538.85 278.95 527.73 284.86 538.3 296.92 539.43 288.69 548.32 291.35 560.13 280.35 555.05 269.94 561.23 271.37 549.2"/>
    <path class="cls-1" d="m279.01,528.86l5.29,9.46.26.46.52.05,10.79,1.01-7.36,7.95-.36.39.12.51,2.38,10.57-9.84-4.54-.48-.22-.45.27-9.32,5.53,1.28-10.76.06-.52-.39-.35-8.14-7.16,10.63-2.1.52-.1.21-.48,4.29-9.95m-.12-2.26l-5.09,11.81-12.62,2.5,9.66,8.49-1.52,12.77,11.06-6.56,11.68,5.39-2.82-12.55,8.74-9.44-12.81-1.2-6.27-11.23h0Z"/>
  </g>
  <g>
    <polygon class="cls-4" points="450.65 356.7 438.89 346.36 454.25 343.32 460.45 328.95 468.08 342.61 483.67 344.07 473.03 355.55 476.46 370.82 462.26 364.26 448.79 372.24 450.65 356.7"/>
    <path class="cls-1" d="m460.5,330.08l7.01,12.55.26.46.52.05,14.31,1.34-9.77,10.55-.36.39.12.51,3.15,14.03-13.05-6.03-.48-.22-.45.27-12.36,7.33,1.7-14.27.06-.52-.39-.35-10.79-9.49,14.1-2.79.52-.1.21-.48,5.69-13.2m-.12-2.26l-6.5,15.06-16.09,3.19,12.32,10.83-1.94,16.29,14.11-8.37,14.89,6.88-3.6-16,11.14-12.03-16.33-1.52-8-14.32h0Z"/>
  </g>
  <g>
    <polygon class="cls-1" points="752.63 234.01 745.07 228.2 754.28 225.73 757.48 216.74 762.67 224.74 772.21 225 766.2 232.42 768.9 241.57 760 238.14 752.13 243.54 752.63 234.01"/>
    <path class="cls-1" d="m757.61,217.86l4.5,6.93.29.44h.53s8.26.24,8.26.24l-5.2,6.42-.33.41.15.5,2.34,7.93-7.71-2.96-.49-.19-.43.3-6.82,4.67.44-8.25.03-.53-.42-.32-6.55-5.04,7.98-2.14.51-.14.18-.5,2.77-7.79m-.26-2.24l-3.44,9.7-9.94,2.66,8.16,6.27-.54,10.28,8.49-5.82,9.61,3.69-2.91-9.87,6.48-8-10.29-.28-5.6-8.63h0Z"/>
  </g>
  <g>
    <polygon class="cls-1" points="72.63 709.01 65.07 703.2 74.28 700.73 77.48 691.74 82.67 699.74 92.21 700 86.2 707.42 88.9 716.57 80 713.14 72.13 718.54 72.63 709.01"/>
    <path class="cls-1" d="m77.61,692.86l4.5,6.93.29.44h.53s8.26.24,8.26.24l-5.2,6.42-.33.41.15.5,2.34,7.93-7.71-2.96-.49-.19-.43.3-6.82,4.67.44-8.25.03-.53-.42-.32-6.55-5.04,7.98-2.14.51-.14.18-.5,2.77-7.79m-.26-2.24l-3.44,9.7-9.94,2.66,8.16,6.27-.54,10.28,8.49-5.82,9.61,3.69-2.91-9.87,6.48-8-10.29-.28-5.6-8.63h0Z"/>
  </g>
  <g>
    <polygon class="cls-1" points="76.63 542.01 69.07 536.2 78.28 533.73 81.48 524.74 86.67 532.74 96.21 533 90.2 540.42 92.9 549.57 84 546.14 76.13 551.54 76.63 542.01"/>
    <path class="cls-1" d="m81.61,525.86l4.5,6.93.29.44h.53s8.26.24,8.26.24l-5.2,6.42-.33.41.15.5,2.34,7.93-7.72-2.96-.49-.19-.43.3-6.82,4.67.44-8.25.03-.53-.42-.32-6.55-5.04,7.98-2.14.51-.14.18-.5,2.77-7.79m-.26-2.24l-3.44,9.7-9.94,2.66,8.16,6.27-.54,10.28,8.49-5.82,9.61,3.69-2.91-9.87,6.48-8-10.29-.28-5.6-8.63h0Z"/>
  </g>
  <g>
    <polygon class="cls-1" points="571.42 338.79 547.75 332.41 567.21 317.51 565.97 293.03 586.15 306.94 609.05 298.19 602.06 321.69 617.45 340.76 592.95 341.37 579.57 361.9 571.42 338.79"/>
    <path class="cls-1" d="m566.52,294.02l19.13,13.18.43.3.49-.19,21.7-8.29-6.62,22.27-.15.5.33.41,14.59,18.08-23.22.58h-.53s-.29.45-.29.45l-12.69,19.46-7.73-21.91-.17-.5-.51-.14-22.43-6.05,18.45-14.12.42-.32-.03-.53-1.18-23.2m-1.1-1.97l1.28,25.23-20.06,15.35,24.39,6.58,8.41,23.82,13.79-21.16,25.25-.63-15.86-19.66,7.2-24.21-23.6,9.01-20.8-14.33h0Z"/>
  </g>
  <g>
    <polygon class="cls-1" points="808.83 11.71 803.3 10.19 807.88 6.72 807.62 .99 812.33 4.27 817.7 2.25 816.03 7.75 819.61 12.23 813.88 12.34 810.71 17.14 808.83 11.71"/>
    <path class="cls-1" d="m808.16,1.98l3.66,2.55.43.3.49-.18,4.18-1.57-1.3,4.27-.15.5.33.41,2.78,3.49-4.46.09h-.53s-.29.45-.29.45l-2.46,3.73-1.46-4.22-.17-.5-.51-.14-4.3-1.19,3.56-2.69.42-.32-.02-.53-.2-4.46m-1.09-1.98l.29,6.48-5.17,3.92,6.26,1.72,2.13,6.13,3.57-5.42,6.49-.13-4.05-5.07,1.88-6.21-6.08,2.28-5.32-3.71h0Z"/>
  </g>
  <g>
    <polygon class="cls-3" points="687.81 263.49 674.11 259.72 685.44 251.14 684.8 236.95 696.45 245.07 709.76 240.07 705.63 253.67 714.49 264.78 700.29 265.06 692.46 276.92 687.81 263.49"/>
    <path class="cls-1" d="m685.34,237.94l10.61,7.39.43.3.49-.18,12.11-4.55-3.75,12.38-.15.5.33.41,8.07,10.11-12.93.25h-.53s-.29.45-.29.45l-7.12,10.8-4.24-12.22-.17-.5-.51-.14-12.47-3.44,10.31-7.81.42-.32-.02-.53-.58-12.92m-1.09-1.98l.68,14.94-11.93,9.03,14.42,3.98,4.9,14.13,8.24-12.49,14.96-.29-9.33-11.69,4.34-14.32-14,5.26-12.27-8.55h0Z"/>
  </g>
  <g>
    <polygon class="cls-4" points="14.81 656.49 1.11 652.72 12.44 644.14 11.8 629.95 23.45 638.07 36.76 633.07 32.63 646.67 41.49 657.78 27.29 658.06 19.46 669.92 14.81 656.49"/>
    <path class="cls-1" d="m12.34,630.94l10.61,7.4.43.3.49-.18,12.11-4.55-3.75,12.38-.15.5.33.41,8.07,10.11-12.93.25h-.53s-.29.45-.29.45l-7.12,10.8-4.24-12.22-.17-.5-.51-.14-12.47-3.44,10.31-7.81.42-.32-.02-.53-.58-12.92m-1.09-1.98l.68,14.94-11.93,9.03,14.42,3.98,4.9,14.13,8.24-12.49,14.96-.29-9.33-11.69,4.34-14.32-14,5.26-12.27-8.55h0Z"/>
  </g>
  <g>
    <polygon class="cls-3" points="162.76 526.41 137.64 519.49 158.42 503.76 157.24 477.73 178.62 492.63 203.01 483.47 195.44 508.4 211.7 528.77 185.64 529.28 171.3 551.03 162.76 526.41"/>
    <path class="cls-1" d="m157.78,478.72l20.33,14.17.43.3.49-.18,23.2-8.71-7.19,23.71-.15.5.33.41,15.46,19.37-24.77.49h-.53s-.29.45-.29.45l-13.64,20.68-8.12-23.41-.17-.5-.51-.14-23.89-6.58,19.76-14.96.42-.32-.02-.53-1.12-24.75m-1.09-1.98l1.21,26.78-21.37,16.18,25.84,7.12,8.78,25.33,14.76-22.38,26.8-.53-16.72-20.95,7.78-25.65-25.09,9.43-21.99-15.33h0Z"/>
  </g>
  <g>
    <polygon class="cls-3" points="454.81 438.49 441.11 434.72 452.44 426.14 451.8 411.95 463.45 420.07 476.76 415.07 472.63 428.67 481.49 439.78 467.29 440.06 459.46 451.92 454.81 438.49"/>
    <path class="cls-1" d="m452.34,412.94l10.61,7.39.43.3.49-.18,12.11-4.55-3.75,12.38-.15.5.33.41,8.07,10.11-12.93.25h-.53s-.29.45-.29.45l-7.12,10.8-4.24-12.22-.17-.5-.51-.14-12.47-3.44,10.31-7.81.42-.32-.02-.53-.58-12.92m-1.09-1.98l.68,14.94-11.93,9.03,14.42,3.98,4.9,14.13,8.24-12.49,14.96-.29-9.33-11.69,4.34-14.32-14,5.26-12.27-8.55h0Z"/>
  </g>
</svg>