<?xml version="1.0" encoding="UTF-8"?>
<svg id="_圖層_1" xmlns="http://www.w3.org/2000/svg" version="1.1" xmlns:xlink="http://www.w3.org/1999/xlink" viewBox="0 0 1080 1920">
  <!-- Generator: Adobe Illustrator 29.8.3, SVG Export Plug-In . SVG Version: 2.1.1 Build 3)  -->
  <defs>
    <style>
      .st0 {
        fill: none;
      }

      .st1 {
        fill: #f9f9f9;
      }

      .st2 {
        fill: url(#_新增圖樣);
      }

      .st3 {
        fill: #dce2e8;
      }
    </style>
    <pattern id="_新增圖樣" data-name=" 新增圖樣" x="0" y="0" width="160" height="160" patternTransform="translate(-442 -15240.33) scale(1 -1)" patternUnits="userSpaceOnUse" viewBox="0 0 160 160">
      <g>
        <rect class="st0" width="160" height="160"/>
        <g>
          <rect class="st0" width="160" height="160"/>
          <g>
            <rect class="st1" x="80" y="-40" width="160" height="80"/>
            <polygon class="st3" points="151.91 8.09 157.13 24.91 167.3 10.53 184.91 10.76 174.38 -3.36 180.03 -20.03 163.36 -14.38 149.24 -24.91 149.47 -7.3 135.09 2.87 151.91 8.09"/>
          </g>
          <g>
            <rect class="st1" x="-80" y="-40" width="160" height="80"/>
            <polygon class="st3" points="-8.09 8.09 -2.87 24.91 7.3 10.53 24.91 10.76 14.38 -3.36 20.03 -20.03 3.36 -14.38 -10.76 -24.91 -10.53 -7.3 -24.91 2.87 -8.09 8.09"/>
          </g>
          <g>
            <rect class="st1" y="40" width="160" height="80"/>
            <polygon class="st3" points="71.91 88.09 77.13 104.91 87.3 90.53 104.91 90.76 94.38 76.64 100.03 59.97 83.36 65.62 69.24 55.09 69.47 72.7 55.09 82.87 71.91 88.09"/>
          </g>
          <g>
            <rect class="st1" x="80" y="120" width="160" height="80"/>
            <polygon class="st3" points="151.91 168.09 157.13 184.91 167.3 170.53 184.91 170.76 174.38 156.64 180.03 139.97 163.36 145.62 149.24 135.09 149.47 152.7 135.09 162.87 151.91 168.09"/>
          </g>
          <g>
            <rect class="st1" x="-80" y="120" width="160" height="80"/>
            <polygon class="st3" points="-8.09 168.09 -2.87 184.91 7.3 170.53 24.91 170.76 14.38 156.64 20.03 139.97 3.36 145.62 -10.76 135.09 -10.53 152.7 -24.91 162.87 -8.09 168.09"/>
          </g>
        </g>
      </g>
    </pattern>
  </defs>
  <polygon class="st2" points="1080 0 1080 1920 0 1920 0 0 1080 0"/>
</svg>